#!OML:ASF G:\JayActor3\Patient Classification 1\Patient 1\Session 5\male.ASF
:FULLY-SPECIFIED
:DEGREES
621
root -1.51684 16.6131 -6.11123 206.865 -86.2558 -208.888
lowerback 0.338816 -1.19782 -1.23897
upperback 1.3188 -1.59692 -0.669928
thorax 1.17484 -0.811948 -0.00323787
lowerneck -6.12597 0.915337 2.77826
upperneck 3.35661 0.956853 0.571935
head 2.1159 0.527228 -0.259263
rclavicle -3.60574e-015 -9.65969e-016
rhumerus -30.6956 -7.8592 -85.4119
rradius 26.3688
rwrist 3.48934
rhand -19.2795 -7.54133
rfingers 7.12502
rthumb 7.03532 -37.4044
lclavicle -3.60574e-015 -9.65969e-016
lhumerus -30.6569 0.186229 85.544
lradius 32.9447
lwrist 19.9034
lhand -17.3153 13.2295
lfingers 7.12502
lthumb 8.93113 43.0205
rfemur -34.7184 8.42924 18.9071
rtibia 32.809
rfoot -20.3674 -13.95
rtoes -4.86487
lfemur 21.1974 11.2462 -24.7986
ltibia 3.18055e-014
lfoot -12.9419 6.12833
ltoes -10.0831
622
root -1.66151 16.6128 -6.12135 207.623 -86.4331 -209.569
lowerback 0.367487 -1.24301 -1.17547
upperback 1.30345 -1.65797 -0.637511
thorax 1.14274 -0.841645 -0.00510692
lowerneck -6.10904 0.901153 2.78289
upperneck 3.19251 0.94 0.570496
head 2.05858 0.516747 -0.261329
rclavicle -2.58922e-014 4.53478e-015
rhumerus -30.6631 -8.05688 -85.2644
rradius 26.1592
rwrist 3.6617
rhand -19.3149 -7.50247
rfingers 7.12502
rthumb 7.00119 -37.3667
lclavicle -2.58922e-014 4.53478e-015
lhumerus -30.7109 0.155403 85.6636
lradius 32.858
lwrist 19.8982
lhand -17.3575 13.1855
lfingers 7.12502
lthumb 8.89042 42.9782
rfemur -34.755 8.63502 18.7991
rtibia 31.3071
rfoot -20.4487 -13.6482
rtoes -5.11323
lfemur 21.6583 11.1889 -24.6374
ltibia -3.49861e-014
lfoot -12.9594 6.12507
ltoes -10.5813
623
root -1.80831 16.6107 -6.13204 208.234 -86.6455 -210.125
lowerback 0.397437 -1.29421 -1.08305
upperback 1.30046 -1.72708 -0.596698
thorax 1.12199 -0.875237 -0.0146975
lowerneck -6.09583 0.886009 2.78475
upperneck 3.02847 0.921965 0.567845
head 2.00206 0.505584 -0.26331
rclavicle 3.80331e-015 6.01324e-015
rhumerus -30.6321 -8.25776 -85.112
rradius 25.946
rwrist 3.85
rhand -19.3347 -7.50185
rfingers 7.12502
rthumb 6.98204 -37.3667
lclavicle 3.80331e-015 6.01324e-015
lhumerus -30.753 0.135818 85.7834
lradius 32.7292
lwrist 19.8688
lhand -17.3783 13.1727
lfingers 7.12502
lthumb 8.8703 42.9662
rfemur -34.7519 8.83057 18.7185
rtibia 29.9637
rfoot -20.579 -13.4016
rtoes -5.35465
lfemur 22.1496 11.103 -24.4313
ltibia -2.8625e-014
lfoot -12.9371 6.09487
ltoes -11.1663
624
root -1.95752 16.6069 -6.1432 209.004 -86.8798 -210.859
lowerback 0.430468 -1.34779 -0.976928
upperback 1.30165 -1.79935 -0.557384
thorax 1.10323 -0.910333 -0.0334223
lowerneck -6.08432 0.867323 2.78397
upperneck 2.87627 0.898921 0.570242
head 1.94973 0.492138 -0.263383
rclavicle 1.67732e-014 -1.98785e-015
rhumerus -30.6191 -8.46772 -84.9555
rradius 25.7318
rwrist 4.05607
rhand -19.3493 -7.53179
rfingers 7.12502
rthumb 6.96795 -37.3971
lclavicle 1.67732e-014 -1.98785e-015
lhumerus -30.7921 0.117234 85.9003
lradius 32.5552
lwrist 19.8193
lhand -17.3589 13.2029
lfingers 7.12502
lthumb 8.88901 42.9956
rfemur -34.7107 8.96573 18.6652
rtibia 28.8036
rfoot -20.7457 -13.1965
rtoes -5.61301
lfemur 22.6708 10.9919 -24.2028
ltibia 2.54444e-014
lfoot -12.8827 6.01769
ltoes -11.7515
625
root -2.10927 16.6015 -6.155 209.916 -87.123 -211.746
lowerback 0.456081 -1.39836 -0.861199
upperback 1.30562 -1.86746 -0.519904
thorax 1.09092 -0.943292 -0.0595438
lowerneck -6.07775 0.845264 2.77825
upperneck 2.74074 0.871023 0.580265
head 1.90372 0.476593 -0.260335
rclavicle 3.36575e-015 -8.44835e-016
rhumerus -30.6249 -8.68759 -84.7938
rradius 25.5161
rwrist 4.27032
rhand -19.3532 -7.58707
rfingers 7.12502
rthumb 6.96417 -37.4525
lclavicle 3.36575e-015 -8.44835e-016
lhumerus -30.8243 0.104649 86.013
lradius 32.333
lwrist 19.7426
lhand -17.3065 13.2757
lfingers 7.12502
lthumb 8.93957 43.0663
rfemur -34.6355 9.01281 18.6567
rtibia 27.8442
rfoot -20.9287 -13.0286
rtoes -5.91264
lfemur 23.2142 10.8673 -23.9561
ltibia -1.59028e-014
lfoot -12.7977 5.89668
ltoes -12.3454
626
root -2.26394 16.5949 -6.16738 211.309 -87.3608 -213.122
lowerback 0.464744 -1.44496 -0.753844
upperback 1.31185 -1.92996 -0.489984
thorax 1.09026 -0.973551 -0.0891509
lowerneck -6.0672 0.819721 2.77034
upperneck 2.61613 0.83844 0.595308
head 1.86053 0.458919 -0.255479
rclavicle 1.47085e-014 1.81391e-015
rhumerus -30.6509 -8.9136 -84.629
rradius 25.2957
rwrist 4.48862
rhand -19.3613 -7.63552
rfingers 7.12502
rthumb 6.95638 -37.5012
lclavicle 1.47085e-014 1.81391e-015
lhumerus -30.8538 0.095909 86.1208
lradius 32.0693
lwrist 19.654
lhand -17.2266 13.3801
lfingers 7.12502
lthumb 9.01671 43.1674
rfemur -34.523 8.96108 18.6807
rtibia 27.096
rfoot -21.1027 -12.9126
rtoes -6.20492
lfemur 23.773 10.7351 -23.7134
ltibia 0
lfoot -12.6724 5.74388
ltoes -12.9755
627
root -2.42124 16.5871 -6.18049 213.404 -87.575 -215.201
lowerback 0.456193 -1.48259 -0.6677
upperback 1.31356 -1.98021 -0.47053
thorax 1.09477 -0.99784 -0.117944
lowerneck -6.0549 0.790695 2.75834
upperneck 2.50984 0.801114 0.617263
head 1.82296 0.43922 -0.24789
rclavicle 5.37573e-015 6.31141e-015
rhumerus -30.7007 -9.14957 -84.4583
rradius 25.073
rwrist 4.70684
rhand -19.3611 -7.68232
rfingers 7.12502
rthumb 6.95656 -37.548
lclavicle 5.37573e-015 6.31141e-015
lhumerus -30.8838 0.0968781 86.2209
lradius 31.7643
lwrist 19.5344
lhand -17.1258 13.53
lfingers 7.12502
lthumb 9.11391 43.3131
rfemur -34.3855 8.84677 18.7119
rtibia 26.565
rfoot -21.2563 -12.8602
rtoes -6.34761
lfemur 24.3353 10.607 -23.4901
ltibia -5.08889e-014
lfoot -12.5005 5.56572
ltoes -13.6347
628
root -2.58131 16.5783 -6.19431 216.466 -87.7511 -218.244
lowerback 0.429828 -1.51002 -0.611979
upperback 1.30972 -2.01656 -0.466247
thorax 1.10395 -1.0154 -0.145604
lowerneck -6.04078 0.759409 2.74477
upperneck 2.42315 0.760502 0.645686
head 1.79144 0.418257 -0.238095
rclavicle -1.94506e-014 -5.26779e-015
rhumerus -30.7773 -9.39125 -84.2859
rradius 24.8503
rwrist 4.92229
rhand -19.3649 -7.70809
rfingers 7.12502
rthumb 6.95288 -37.5739
lclavicle -1.94506e-014 -5.26779e-015
lhumerus -30.9199 0.105075 86.3107
lradius 31.4246
lwrist 19.395
lhand -17.0304 13.6947
lfingers 7.12502
lthumb 9.20601 43.4737
rfemur -34.2264 8.70701 18.7239
rtibia 26.2564
rfoot -21.3515 -12.9028
rtoes -6.29967
lfemur 24.9007 10.4898 -23.2994
ltibia 3.18055e-015
lfoot -12.2741 5.37431
ltoes -14.3421
629
root -2.74417 16.5681 -6.20894 220.699 -87.8718 -222.459
lowerback 0.376754 -1.52846 -0.603761
upperback 1.30829 -2.04048 -0.477233
thorax 1.13161 -1.02719 -0.163135
lowerneck -6.03304 0.728258 2.73062
upperneck 2.35295 0.719675 0.67576
head 1.76647 0.397436 -0.227663
rclavicle -7.22147e-015 2.03754e-015
rhumerus -30.8606 -9.63283 -84.1133
rradius 24.6217
rwrist 5.14668
rhand -19.367 -7.71214
rfingers 7.12502
rthumb 6.95084 -37.578
lclavicle -7.22147e-015 2.03754e-015
lhumerus -30.95 0.138692 86.3864
lradius 31.0542
lwrist 19.2326
lhand -16.9416 13.8842
lfingers 7.12502
lthumb 9.29172 43.6594
rfemur -34.0526 8.6047 18.6776
rtibia 26.1663
rfoot -21.3956 -13.0635
rtoes -6.02342
lfemur 25.4692 10.3902 -23.1551
ltibia 3.18055e-015
lfoot -11.9851 5.1805
ltoes -15.1356
630
root -2.90983 16.5563 -6.22435 225.933 -87.9347 -227.676
lowerback 0.301635 -1.53874 -0.635649
upperback 1.30663 -2.05307 -0.50428
thorax 1.17218 -1.03368 -0.175305
lowerneck -6.03154 0.696786 2.71596
upperneck 2.3022 0.677889 0.709805
head 1.74896 0.376485 -0.215906
rclavicle 3.09654e-014 2.68359e-015
rhumerus -30.9534 -9.87842 -83.9427
rradius 24.3852
rwrist 5.37939
rhand -19.3808 -7.69755
rfingers 7.12502
rthumb 6.93761 -37.5639
lclavicle 3.09654e-014 2.68359e-015
lhumerus -30.983 0.193262 86.4441
lradius 30.6582
lwrist 19.0561
lhand -16.8791 14.0533
lfingers 7.12502
lthumb 9.35203 43.8258
rfemur -33.8684 8.56077 18.5687
rtibia 26.2876
rfoot -21.3777 -13.3103
rtoes -5.54168
lfemur 26.0442 10.3052 -23.0514
ltibia 6.67916e-014
lfoot -11.6369 4.97831
ltoes -16.0037
631
root -3.07823 16.5426 -6.24073 231.522 -87.945 -233.25
lowerback 0.20819 -1.5432 -0.695719
upperback 1.30316 -2.05743 -0.53997
thorax 1.22185 -1.03634 -0.181054
lowerneck -6.03672 0.668203 2.6998
upperneck 2.27521 0.639645 0.743436
head 1.74042 0.35762 -0.203887
rclavicle 1.53577e-014 4.32357e-015
rhumerus -31.0565 -10.1219 -83.7736
rradius 24.1394
rwrist 5.6182
rhand -19.3976 -7.66901
rfingers 7.12502
rthumb 6.92136 -37.5359
lclavicle 1.53577e-014 4.32357e-015
lhumerus -31.0279 0.283238 86.4807
lradius 30.2438
lwrist 18.8644
lhand -16.838 14.2108
lfingers 7.12502
lthumb 9.39162 43.9816
rfemur -33.676 8.58371 18.4186
rtibia 26.6024
rfoot -21.3051 -13.6184
rtoes -4.9372
lfemur 26.6279 10.235 -22.969
ltibia 2.54444e-014
lfoot -11.2269 4.76825
ltoes -16.9515
632
root -3.2496 16.5279 -6.25791 237.353 -87.9106 -239.073
lowerback 0.103208 -1.54666 -0.778906
upperback 1.29759 -2.06 -0.584091
thorax 1.27635 -1.03834 -0.182826
lowerneck -6.05197 0.640889 2.68122
upperneck 2.27791 0.602705 0.775791
head 1.74338 0.339798 -0.191793
rclavicle 2.26405e-014 6.31141e-015
rhumerus -31.1708 -10.3688 -83.6039
rradius 23.8844
rwrist 5.87275
rhand -19.4114 -7.64198
rfingers 7.12502
rthumb 6.908 -37.5093
lclavicle 2.26405e-014 6.31141e-015
lhumerus -31.092 0.410678 86.4932
lradius 29.8189
lwrist 18.6624
lhand -16.814 14.3787
lfingers 7.12502
lthumb 9.41482 44.1484
rfemur -33.468 8.61189 18.2595
rtibia 27.0827
rfoot -21.1731 -13.9678
rtoes -4.3545
lfemur 27.2262 10.1663 -22.9029
ltibia 6.04305e-014
lfoot -10.7581 4.53581
ltoes -17.8701
633
root -3.42407 16.5134 -6.27593 243.106 -87.8468 -244.825
lowerback -0.00749453 -1.55078 -0.870078
upperback 1.28383 -2.06308 -0.631733
thorax 1.32584 -1.04066 -0.18378
lowerneck -6.0751 0.614996 2.65971
upperneck 2.31637 0.567471 0.803564
head 1.75944 0.323242 -0.180566
rclavicle 1.60278e-014 4.52235e-015
rhumerus -31.3049 -10.6275 -83.4274
rradius 23.6172
rwrist 6.13787
rhand -19.4203 -7.61203
rfingers 7.12502
rthumb 6.89942 -37.4796
lclavicle 1.60278e-014 4.52235e-015
lhumerus -31.189 0.576344 86.482
lradius 29.3895
lwrist 18.4522
lhand -16.8051 14.5411
lfingers 7.12502
lthumb 9.42344 44.3104
rfemur -33.2433 8.5823 18.139
rtibia 27.6912
rfoot -20.9537 -14.3842
rtoes -3.89294
lfemur 27.8361 10.0904 -22.8366
ltibia 1.90833e-014
lfoot -10.2226 4.28284
ltoes -18.7422
634
root -3.60189 16.5013 -6.29459 248.725 -87.7695 -250.451
lowerback -0.123226 -1.55938 -0.955334
upperback 1.26186 -2.07188 -0.677665
thorax 1.36962 -1.04574 -0.186383
lowerneck -6.10009 0.589502 2.6355
upperneck 2.38424 0.533147 0.820213
head 1.78548 0.307311 -0.172335
rclavicle -4.16283e-014 -9.93923e-017
rhumerus -31.4654 -10.8933 -83.2421
rradius 23.3506
rwrist 6.41208
rhand -19.4127 -7.5956
rfingers 7.12502
rthumb 6.90676 -37.4629
lclavicle -4.16283e-014 -9.93923e-017
lhumerus -31.3202 0.784176 86.4472
lradius 28.9553
lwrist 18.2346
lhand -16.8054 14.7448
lfingers 7.12502
lthumb 9.42308 44.5141
rfemur -33.0038 8.43636 18.0894
rtibia 28.3901
rfoot -20.6164 -14.8657
rtoes -3.54023
lfemur 28.4516 9.99778 -22.7576
ltibia -5.40694e-014
lfoot -9.60645 4.01984
ltoes -19.5637
635
root -3.78323 16.4936 -6.31374 254.123 -87.6928 -255.865
lowerback -0.243553 -1.5717 -1.02223
upperback 1.22892 -2.08559 -0.715591
thorax 1.40442 -1.05303 -0.191093
lowerneck -6.10097 0.562715 2.60925
upperneck 2.46665 0.498697 0.821971
head 1.81204 0.29114 -0.16847
rclavicle 4.41053e-015 7.20594e-015
rhumerus -31.6637 -11.1623 -83.0425
rradius 23.0909
rwrist 6.68339
rhand -19.3965 -7.58249
rfingers 7.12502
rthumb 6.92243 -37.4493
lclavicle 4.41053e-015 7.20594e-015
lhumerus -31.4924 1.03473 86.3927
lradius 28.5185
lwrist 18.0111
lhand -16.822 14.9303
lfingers 7.12502
lthumb 9.4071 44.7003
rfemur -32.753 8.17213 18.1174
rtibia 29.134
rfoot -20.1707 -15.3759
rtoes -3.25574
lfemur 29.07 9.88633 -22.6509
ltibia 4.13472e-014
lfoot -8.89225 3.75554
ltoes -20.3452
